{
  "accessors": [
    {
      "bufferView": 2,
      "componentType": 5126,
      "count": 32,
      "max": [
        0.010892940685153008,
        -0.0034767568577080965,
        0.01293569803237915
      ],
      "min": [
        -0.014792900532484055,
        -0.0034767657052725554,
        -0.012750137597322464
      ],
      "type": "VEC3"
    },
    {
      "bufferView": 2,
      "byteOffset": 384,
      "componentType": 5126,
      "count": 32,
      "max": [
        8.332522725140734e-07,
        -1.0,
        1.470974325457064e-06
      ],
      "min": [
        -6.838881176918221e-07,
        -1.0,
        -1.470977622375358e-06
      ],
      "type": "VEC3"
    },
    {
      "bufferView": 3,
      "componentType": 5126,
      "count": 32,
      "max": [
        1.0,
        8.332745551342668e-07,
        2.4181172193493694e-05,
        1.0
      ],
      "min": [
        1.0,
        -6.838881176918221e-07,
        -2.2367630663211457e-05,
        1.0
      ],
      "type": "VEC4"
    },
    {
      "bufferView": 1,
      "componentType": 5126,
      "count": 32,
      "max": [
        1.0,
        1.0
      ],
      "min": [
        0.0,
        0.0
      ],
      "type": "VEC2"
    },
    {
      "bufferView": 0,
      "componentType": 5125,
      "count": 90,
      "type": "SCALAR"
    },
    {
      "bufferView": 2,
      "byteOffset": 768,
      "componentType": 5126,
      "count": 5127,
      "max": [
        0.019650859758257866,
        0.006503122393041849,
        0.02264747954905033
      ],
      "min": [
        -0.02182239666581154,
        -0.007085847668349743,
        -0.022461922839283943
      ],
      "type": "VEC3"
    },
    {
      "bufferView": 2,
      "byteOffset": 62292,
      "componentType": 5126,
      "count": 5127,
      "max": [
        1.0,
        1.0,
        1.0
      ],
      "min": [
        -1.0,
        -1.0,
        -1.0
      ],
      "type": "VEC3"
    },
    {
      "bufferView": 3,
      "byteOffset": 512,
      "componentType": 5126,
      "count": 5127,
      "max": [
        1.0,
        1.0,
        1.0,
        1.0
      ],
      "min": [
        -1.0,
        -1.0,
        -1.0,
        -1.0
      ],
      "type": "VEC4"
    },
    {
      "bufferView": 1,
      "byteOffset": 256,
      "componentType": 5126,
      "count": 5127,
      "max": [
        0.9980342984199524,
        0.9988764524459839
      ],
      "min": [
        0.0011236503487452865,
        0.0011236503487452865
      ],
      "type": "VEC2"
    },
    {
      "bufferView": 0,
      "byteOffset": 360,
      "componentType": 5125,
      "count": 13380,
      "type": "SCALAR"
    },
    {
      "bufferView": 2,
      "byteOffset": 123816,
      "componentType": 5126,
      "count": 32,
      "max": [
        0.014877816662192345,
        5.713772566195985e-09,
        0.014877811074256897
      ],
      "min": [
        -0.014877816662192345,
        -4.570463563169369e-09,
        -0.014877811074256897
      ],
      "type": "VEC3"
    },
    {
      "bufferView": 2,
      "byteOffset": 124200,
      "componentType": 5126,
      "count": 32,
      "max": [
        1.1194199487363221e-06,
        -1.0,
        1.6898529793252237e-06
      ],
      "min": [
        -6.716540497109236e-07,
        -1.0,
        -1.0381752417742973e-06
      ],
      "type": "VEC3"
    },
    {
      "bufferView": 1,
      "byteOffset": 41272,
      "componentType": 5126,
      "count": 32,
      "max": [
        0.9998996257781982,
        0.9998999834060669
      ],
      "min": [
        9.997998859034851e-05,
        9.997998859034851e-05
      ],
      "type": "VEC2"
    },
    {
      "bufferView": 0,
      "byteOffset": 53880,
      "componentType": 5125,
      "count": 90,
      "type": "SCALAR"
    },
    {
      "bufferView": 2,
      "byteOffset": 124584,
      "componentType": 5126,
      "count": 160,
      "max": [
        0.010754778981208801,
        0.023832321166992188,
        0.03582681342959404
      ],
      "min": [
        -0.010754779912531376,
        -0.027624133974313736,
        -0.035831812769174576
      ],
      "type": "VEC3"
    },
    {
      "bufferView": 2,
      "byteOffset": 126504,
      "componentType": 5126,
      "count": 160,
      "max": [
        1.0,
        1.0,
        1.0
      ],
      "min": [
        -1.0,
        -1.0,
        -1.0
      ],
      "type": "VEC3"
    },
    {
      "bufferView": 3,
      "byteOffset": 82544,
      "componentType": 5126,
      "count": 160,
      "max": [
        1.0,
        0.8458392024040222,
        1.0,
        1.0
      ],
      "min": [
        -1.0,
        -1.0,
        -0.9710139632225037,
        1.0
      ],
      "type": "VEC4"
    },
    {
      "bufferView": 1,
      "byteOffset": 41528,
      "componentType": 5126,
      "count": 160,
      "max": [
        0.9997157454490662,
        0.9068057537078857
      ],
      "min": [
        0.00028418845613487065,
        0.00028418845613487065
      ],
      "type": "VEC2"
    },
    {
      "bufferView": 0,
      "byteOffset": 54240,
      "componentType": 5125,
      "count": 396,
      "type": "SCALAR"
    }
  ],
  "asset": {
    "extras": {
      "author": "Mateusz Woliński (https://sketchfab.com/jeandiz)",
      "license": "CC-BY-4.0 (http://creativecommons.org/licenses/by/4.0/)",
      "source": "https://sketchfab.com/3d-models/digital-watch-fbad4cb705104df9b60cab174680707a",
      "title": "Digital Watch"
    },
    "generator": "Sketchfab-13.96.0",
    "version": "2.0"
  },
  "bufferViews": [
    {
      "buffer": 0,
      "byteLength": 55824,
      "name": "floatBufferViews",
      "target": 34963
    },
    {
      "buffer": 0,
      "byteLength": 42808,
      "byteOffset": 55824,
      "byteStride": 8,
      "name": "floatBufferViews",
      "target": 34962
    },
    {
      "buffer": 0,
      "byteLength": 128424,
      "byteOffset": 98632,
      "byteStride": 12,
      "name": "floatBufferViews",
      "target": 34962
    },
    {
      "buffer": 0,
      "byteLength": 85104,
      "byteOffset": 227056,
      "byteStride": 16,
      "name": "floatBufferViews",
      "target": 34962
    }
  ],
  "buffers": [
    {
      "byteLength": 312160,
      "uri": "scene.bin"
    }
  ],
  "images": [
    {
      "uri": "textures/Face_baseColor.png"
    },
    {
      "uri": "textures/Face_metallicRoughness.png"
    },
    {
      "uri": "textures/Face_emissive.png"
    },
    {
      "uri": "textures/Face_normal.png"
    },
    {
      "uri": "textures/Case_baseColor.png"
    },
    {
      "uri": "textures/Case_metallicRoughness.png"
    },
    {
      "uri": "textures/Case_normal.png"
    },
    {
      "uri": "textures/Glass_baseColor.png"
    },
    {
      "uri": "textures/Glass_metallicRoughness.png"
    },
    {
      "uri": "textures/Band_baseColor.png"
    },
    {
      "uri": "textures/Band_metallicRoughness.png"
    },
    {
      "uri": "textures/Band_normal.png"
    }
  ],
  "materials": [
    {
      "emissiveFactor": [
        1.0,
        1.0,
        1.0
      ],
      "emissiveTexture": {
        "index": 2
      },
      "name": "Face",
      "normalTexture": {
        "index": 3
      },
      "pbrMetallicRoughness": {
        "baseColorTexture": {
          "index": 0
        },
        "metallicFactor": 0.0,
        "metallicRoughnessTexture": {
          "index": 1
        }
      }
    },
    {
      "name": "Case",
      "normalTexture": {
        "index": 6
      },
      "pbrMetallicRoughness": {
        "baseColorTexture": {
          "index": 4
        },
        "metallicFactor": 0.0,
        "metallicRoughnessTexture": {
          "index": 5
        }
      }
    },
    {
      "alphaMode": "BLEND",
      "name": "Glass",
      "pbrMetallicRoughness": {
        "baseColorTexture": {
          "index": 7
        },
        "metallicRoughnessTexture": {
          "index": 8
        },
        "roughnessFactor": 0.922664437380262
      }
    },
    {
      "name": "Band",
      "normalTexture": {
        "index": 11
      },
      "pbrMetallicRoughness": {
        "baseColorTexture": {
          "index": 9
        },
        "metallicFactor": 0.0,
        "metallicRoughnessTexture": {
          "index": 10
        }
      }
    }
  ],
  "meshes": [
    {
      "name": "Case_Face_0",
      "primitives": [
        {
          "attributes": {
            "NORMAL": 1,
            "POSITION": 0,
            "TANGENT": 2,
            "TEXCOORD_0": 3
          },
          "indices": 4,
          "material": 0,
          "mode": 4
        }
      ]
    },
    {
      "name": "Case_Case_0",
      "primitives": [
        {
          "attributes": {
            "NORMAL": 6,
            "POSITION": 5,
            "TANGENT": 7,
            "TEXCOORD_0": 8
          },
          "indices": 9,
          "material": 1,
          "mode": 4
        }
      ]
    },
    {
      "name": "Glass_Glass_0",
      "primitives": [
        {
          "attributes": {
            "NORMAL": 11,
            "POSITION": 10,
            "TEXCOORD_0": 12
          },
          "indices": 13,
          "material": 2,
          "mode": 4
        }
      ]
    },
    {
      "name": "Band_Band_0",
      "primitives": [
        {
          "attributes": {
            "NORMAL": 15,
            "POSITION": 14,
            "TANGENT": 16,
            "TEXCOORD_0": 17
          },
          "indices": 18,
          "material": 3,
          "mode": 4
        }
      ]
    }
  ],
  "nodes": [
    {
      "children": [
        1
      ],
      "matrix": [
        1.0,
        0.0,
        0.0,
        0.0,
        0.0,
        2.220446049250313e-16,
        -1.0,
        0.0,
        0.0,
        1.0,
        2.220446049250313e-16,
        0.0,
        0.0,
        0.0,
        0.0,
        1.0
      ],
      "name": "Sketchfab_model"
    },
    {
      "children": [
        2
      ],
      "matrix": [
        0.009999999776482582,
        0.0,
        0.0,
        0.0,
        0.0,
        0.0,
        0.009999999776482582,
        0.0,
        0.0,
        -0.009999999776482582,
        0.0,
        0.0,
        0.0,
        0.0,
        0.0,
        1.0
      ],
      "name": "cd5e490e335f49889a2767134dfcfaf6.fbx"
    },
    {
      "children": [
        3
      ],
      "name": "RootNode"
    },
    {
      "children": [
        4,
        5,
        6,
        8
      ],
      "matrix": [
        100.0,
        0.0,
        0.0,
        0.0,
        0.0,
        -1.629206793918314e-05,
        -99.99999999999868,
        0.0,
        0.0,
        99.99999999999868,
        -1.629206793918314e-05,
        0.0,
        0.09975064545869827,
        0.03507900610566139,
        2.3526337146759033,
        1.0
      ],
      "name": "Case"
    },
    {
      "mesh": 0,
      "name": "Case_Face_0"
    },
    {
      "mesh": 1,
      "name": "Case_Case_0"
    },
    {
      "children": [
        7
      ],
      "matrix": [
        1.0,
        0.0,
        0.0,
        0.0,
        0.0,
        1.0,
        -2.646977960169688e-23,
        0.0,
        0.0,
        2.646977960169688e-23,
        1.0,
        0.0,
        -0.0019499803893268108,
        -0.0059113409370183945,
        9.278138168156147e-05,
        1.0
      ],
      "name": "Glass"
    },
    {
      "mesh": 2,
      "name": "Glass_Glass_0"
    },
    {
      "children": [
        9
      ],
      "matrix": [
        1.0,
        0.0,
        0.0,
        0.0,
        0.0,
        1.0,
        -2.646977960169688e-23,
        0.0,
        0.0,
        2.646977960169688e-23,
        1.0,
        0.0,
        -0.001993156038224697,
        0.029324952512979507,
        9.52814007177949e-05,
        1.0
      ],
      "name": "Band"
    },
    {
      "mesh": 3,
      "name": "Band_Band_0"
    }
  ],
  "samplers": [
    {
      "magFilter": 9729,
      "minFilter": 9987,
      "wrapS": 10497,
      "wrapT": 10497
    }
  ],
  "scene": 0,
  "scenes": [
    {
      "name": "Sketchfab_Scene",
      "nodes": [
        0
      ]
    }
  ],
  "textures": [
    {
      "sampler": 0,
      "source": 0
    },
    {
      "sampler": 0,
      "source": 1
    },
    {
      "sampler": 0,
      "source": 2
    },
    {
      "sampler": 0,
      "source": 3
    },
    {
      "sampler": 0,
      "source": 4
    },
    {
      "sampler": 0,
      "source": 5
    },
    {
      "sampler": 0,
      "source": 6
    },
    {
      "sampler": 0,
      "source": 7
    },
    {
      "sampler": 0,
      "source": 8
    },
    {
      "sampler": 0,
      "source": 9
    },
    {
      "sampler": 0,
      "source": 10
    },
    {
      "sampler": 0,
      "source": 11
    }
  ]
}
