{
  "accessors": [
    {
      "bufferView": 2,
      "componentType": 5126,
      "count": 4748,
      "max": [
        1.1455899477005005,
        1.1867899894714355,
        1.4976099729537964
      ],
      "min": [
        -0.5851500034332275,
        -1.1867899894714355,
        -1.4976099729537964
      ],
      "type": "VEC3"
    },
    {
      "bufferView": 2,
      "byteOffset": 56976,
      "componentType": 5126,
      "count": 4748,
      "max": [
        1.0,
        1.0,
        1.0
      ],
      "min": [
        -1.0,
        -1.0,
        -1.0
      ],
      "type": "VEC3"
    },
    {
      "bufferView": 1,
      "componentType": 5126,
      "count": 4748,
      "max": [
        0.9996500015258789,
        0.9971200227737427
      ],
      "min": [
        0.0017900000093504786,
        0.0028299998957663774
      ],
      "type": "VEC2"
    },
    {
      "bufferView": 0,
      "componentType": 5125,
      "count": 20232,
      "type": "SCALAR"
    },
    {
      "bufferView": 2,
      "byteOffset": 113952,
      "componentType": 5126,
      "count": 4264,
      "max": [
        2.065200090408325,
        1.1847399473190308,
        15.533439636230469
      ],
      "min": [
        -20.415870666503906,
        -1.1749800443649292,
        -5.401710033416748
      ],
      "type": "VEC3"
    },
    {
      "bufferView": 2,
      "byteOffset": 165120,
      "componentType": 5126,
      "count": 4264,
      "max": [
        1.0,
        1.0,
        0.9997621178627014
      ],
      "min": [
        -0.9999836087226868,
        -1.0,
        -0.9999646544456482
      ],
      "type": "VEC3"
    },
    {
      "bufferView": 1,
      "byteOffset": 37984,
      "componentType": 5126,
      "count": 4264,
      "max": [
        0.9961400032043457,
        0.9749600291252136
      ],
      "min": [
        0.0025599999353289604,
        0.025280000641942024
      ],
      "type": "VEC2"
    },
    {
      "bufferView": 0,
      "byteOffset": 80928,
      "componentType": 5125,
      "count": 19248,
      "type": "SCALAR"
    },
    {
      "bufferView": 2,
      "byteOffset": 216288,
      "componentType": 5126,
      "count": 4,
      "max": [
        0.8923699855804443,
        0.8475099802017212,
        -0.0
      ],
      "min": [
        -0.8401600122451782,
        -0.8976200222969055,
        -0.0
      ],
      "type": "VEC3"
    },
    {
      "bufferView": 2,
      "byteOffset": 216336,
      "componentType": 5126,
      "count": 4,
      "max": [
        -0.0,
        0.0,
        1.0
      ],
      "min": [
        -0.0,
        0.0,
        1.0
      ],
      "type": "VEC3"
    },
    {
      "bufferView": 1,
      "byteOffset": 72096,
      "componentType": 5126,
      "count": 4,
      "max": [
        0.9860299825668335,
        0.9455500245094299
      ],
      "min": [
        0.0031399999279528856,
        0.08048000186681747
      ],
      "type": "VEC2"
    },
    {
      "bufferView": 0,
      "byteOffset": 157920,
      "componentType": 5125,
      "count": 6,
      "type": "SCALAR"
    },
    {
      "bufferView": 2,
      "byteOffset": 216384,
      "componentType": 5126,
      "count": 4,
      "max": [
        0.8923699855804443,
        0.8475099802017212,
        -0.0
      ],
      "min": [
        -0.8401600122451782,
        -0.8976200222969055,
        -0.0
      ],
      "type": "VEC3"
    },
    {
      "bufferView": 2,
      "byteOffset": 216432,
      "componentType": 5126,
      "count": 4,
      "max": [
        -0.0,
        0.0,
        1.0
      ],
      "min": [
        -0.0,
        0.0,
        1.0
      ],
      "type": "VEC3"
    },
    {
      "bufferView": 1,
      "byteOffset": 72128,
      "componentType": 5126,
      "count": 4,
      "max": [
        0.9860299825668335,
        0.9455500245094299
      ],
      "min": [
        0.0031399999279528856,
        0.08048000186681747
      ],
      "type": "VEC2"
    },
    {
      "bufferView": 0,
      "byteOffset": 157944,
      "componentType": 5125,
      "count": 6,
      "type": "SCALAR"
    },
    {
      "bufferView": 3,
      "componentType": 5126,
      "count": 82,
      "max": [
        3.625
      ],
      "min": [
        0.08332999795675278
      ],
      "type": "SCALAR"
    },
    {
      "bufferView": 4,
      "componentType": 5126,
      "count": 82,
      "max": [
        0.731719970703125,
        0.002050000010058284,
        -0.656470000743866
      ],
      "min": [
        0.7150400280952454,
        0.002050000010058284,
        -0.656470000743866
      ],
      "type": "VEC3"
    },
    {
      "bufferView": 3,
      "byteOffset": 328,
      "componentType": 5126,
      "count": 1,
      "max": [
        0.08332999795675278
      ],
      "min": [
        0.08332999795675278
      ],
      "type": "SCALAR"
    },
    {
      "bufferView": 5,
      "componentType": 5126,
      "count": 1,
      "max": [
        0.0,
        0.7071099877357483,
        0.0,
        0.7071099877357483
      ],
      "min": [
        0.0,
        0.7071099877357483,
        0.0,
        0.7071099877357483
      ],
      "type": "VEC4"
    },
    {
      "bufferView": 3,
      "byteOffset": 332,
      "componentType": 5126,
      "count": 79,
      "max": [
        3.625
      ],
      "min": [
        0.08332999795675278
      ],
      "type": "SCALAR"
    },
    {
      "bufferView": 4,
      "byteOffset": 984,
      "componentType": 5126,
      "count": 79,
      "max": [
        0.7315400242805481,
        0.002050000010058284,
        -0.656470000743866
      ],
      "min": [
        0.7226600050926208,
        0.002050000010058284,
        -0.656470000743866
      ],
      "type": "VEC3"
    },
    {
      "bufferView": 3,
      "byteOffset": 648,
      "componentType": 5126,
      "count": 1,
      "max": [
        0.08332999795675278
      ],
      "min": [
        0.08332999795675278
      ],
      "type": "SCALAR"
    },
    {
      "bufferView": 5,
      "byteOffset": 16,
      "componentType": 5126,
      "count": 1,
      "max": [
        0.0,
        0.7071099877357483,
        0.0,
        0.7071099877357483
      ],
      "min": [
        0.0,
        0.7071099877357483,
        0.0,
        0.7071099877357483
      ],
      "type": "VEC4"
    }
  ],
  "animations": [
    {
      "channels": [
        {
          "sampler": 0,
          "target": {
            "node": 8,
            "path": "translation"
          }
        },
        {
          "sampler": 1,
          "target": {
            "node": 8,
            "path": "rotation"
          }
        },
        {
          "sampler": 2,
          "target": {
            "node": 6,
            "path": "translation"
          }
        },
        {
          "sampler": 3,
          "target": {
            "node": 6,
            "path": "rotation"
          }
        }
      ],
      "name": "Take 01",
      "samplers": [
        {
          "input": 16,
          "interpolation": "LINEAR",
          "output": 17
        },
        {
          "input": 18,
          "interpolation": "LINEAR",
          "output": 19
        },
        {
          "input": 20,
          "interpolation": "LINEAR",
          "output": 21
        },
        {
          "input": 22,
          "interpolation": "LINEAR",
          "output": 23
        }
      ]
    }
  ],
  "asset": {
    "extras": {
      "author": "Mateusz Woliński (https://sketchfab.com/jeandiz)",
      "license": "CC-BY-NC-4.0 (http://creativecommons.org/licenses/by-nc/4.0/)",
      "source": "https://sketchfab.com/3d-models/digital-watch-b6466b64dd8b495c99f24a5054491f4d",
      "title": "Digital Watch"
    },
    "generator": "Sketchfab-15.53.0",
    "version": "2.0"
  },
  "bufferViews": [
    {
      "buffer": 0,
      "byteLength": 157968,
      "name": "floatBufferViews",
      "target": 34963
    },
    {
      "buffer": 0,
      "byteLength": 72160,
      "byteOffset": 157968,
      "byteStride": 8,
      "name": "floatBufferViews",
      "target": 34962
    },
    {
      "buffer": 0,
      "byteLength": 216480,
      "byteOffset": 230128,
      "byteStride": 12,
      "name": "floatBufferViews",
      "target": 34962
    },
    {
      "buffer": 0,
      "byteLength": 652,
      "byteOffset": 446608,
      "name": "floatBufferViews"
    },
    {
      "buffer": 0,
      "byteLength": 1932,
      "byteOffset": 447260,
      "byteStride": 12,
      "name": "floatBufferViews"
    },
    {
      "buffer": 0,
      "byteLength": 32,
      "byteOffset": 449192,
      "byteStride": 16,
      "name": "floatBufferViews"
    }
  ],
  "buffers": [
    {
      "byteLength": 449224,
      "uri": "scene.bin"
    }
  ],
  "extensionsUsed": [
    "KHR_materials_emissive_strength",
    "KHR_materials_specular",
    "KHR_materials_transmission"
  ],
  "images": [
    {
      "uri": "textures/screen_with_emmision_baseColor.jpeg"
    },
    {
      "uri": "textures/screen_with_emmision_emissive.jpeg"
    },
    {
      "uri": "textures/strap_baseColor.png"
    },
    {
      "uri": "textures/strap_metallicRoughness.png"
    },
    {
      "uri": "textures/watch_baseColor.png"
    },
    {
      "uri": "textures/watch_metallicRoughness.png"
    },
    {
      "uri": "textures/watch_transmission.png"
    }
  ],
  "materials": [
    {
      "doubleSided": true,
      "emissiveFactor": [
        1.0,
        1.0,
        1.0
      ],
      "emissiveTexture": {
        "index": 1
      },
      "extensions": {
        "KHR_materials_emissive_strength": {
          "emissiveStrength": 1.7244664634146343
        }
      },
      "name": "screen_with_emmision",
      "pbrMetallicRoughness": {
        "baseColorTexture": {
          "index": 0
        },
        "metallicFactor": 0.0078125,
        "roughnessFactor": 0.044397865853658534
      }
    },
    {
      "doubleSided": true,
      "extensions": {
        "KHR_materials_specular": {
          "specularColorFactor": [
            1.0,
            1.0,
            1.0
          ],
          "specularFactor": 0.6236661585365854
        }
      },
      "name": "screen",
      "pbrMetallicRoughness": {
        "baseColorTexture": {
          "index": 0
        },
        "metallicFactor": 0.0,
        "roughnessFactor": 0.12976371951219512
      }
    },
    {
      "doubleSided": true,
      "name": "strap",
      "pbrMetallicRoughness": {
        "baseColorTexture": {
          "index": 2
        },
        "metallicRoughnessTexture": {
          "index": 3
        }
      }
    },
    {
      "alphaMode": "BLEND",
      "doubleSided": true,
      "extensions": {
        "KHR_materials_specular": {
          "specularColorFactor": [
            1.0,
            1.0,
            1.0
          ],
          "specularFactor": 0.5565929878048781
        },
        "KHR_materials_transmission": {
          "transmissionFactor": 1.0,
          "transmissionTexture": {
            "index": 6
          }
        }
      },
      "name": "watch",
      "pbrMetallicRoughness": {
        "baseColorFactor": [
          0.5329208617282817,
          0.5329208617282817,
          0.5329208617282817,
          1.0
        ],
        "baseColorTexture": {
          "index": 4
        },
        "metallicFactor": 0.6968368902439024,
        "metallicRoughnessTexture": {
          "index": 5
        }
      }
    }
  ],
  "meshes": [
    {
      "name": "watch_0",
      "primitives": [
        {
          "attributes": {
            "NORMAL": 1,
            "POSITION": 0,
            "TEXCOORD_0": 2
          },
          "indices": 3,
          "material": 3,
          "mode": 4
        }
      ]
    },
    {
      "name": "strap_0",
      "primitives": [
        {
          "attributes": {
            "NORMAL": 5,
            "POSITION": 4,
            "TEXCOORD_0": 6
          },
          "indices": 7,
          "material": 2,
          "mode": 4
        }
      ]
    },
    {
      "name": "screen_0",
      "primitives": [
        {
          "attributes": {
            "NORMAL": 9,
            "POSITION": 8,
            "TEXCOORD_0": 10
          },
          "indices": 11,
          "material": 1,
          "mode": 4
        }
      ]
    },
    {
      "name": "screen.001_0",
      "primitives": [
        {
          "attributes": {
            "NORMAL": 13,
            "POSITION": 12,
            "TEXCOORD_0": 14
          },
          "indices": 15,
          "material": 0,
          "mode": 4
        }
      ]
    }
  ],
  "nodes": [
    {
      "children": [
        1
      ],
      "matrix": [
        1.0,
        0.0,
        0.0,
        0.0,
        0.0,
        2.220446049250313e-16,
        -1.0,
        0.0,
        0.0,
        1.0,
        2.220446049250313e-16,
        0.0,
        0.0,
        0.0,
        0.0,
        1.0
      ],
      "name": "Sketchfab_model"
    },
    {
      "children": [
        2,
        4,
        6,
        8
      ],
      "name": "Root"
    },
    {
      "children": [
        3
      ],
      "matrix": [
        1.0,
        0.0,
        0.0,
        0.0,
        0.0,
        2.7341,
        0.0,
        0.0,
        0.0,
        0.0,
        2.48081,
        0.0,
        0.0,
        -0.008960000000000001,
        -0.7409900000000001,
        1.0
      ],
      "name": "watch"
    },
    {
      "mesh": 0,
      "name": "watch_0"
    },
    {
      "children": [
        5
      ],
      "matrix": [
        0.39211000000000007,
        0.0,
        -0.09231000000000002,
        0.0,
        0.0,
        1.88394,
        0.0,
        0.0,
        0.11946000000000002,
        0.0,
        0.50744,
        0.0,
        -0.84052,
        0.0063500000000000015,
        -3.8980399999999995,
        1.0
      ],
      "name": "strap"
    },
    {
      "mesh": 1,
      "name": "strap_0"
    },
    {
      "children": [
        7
      ],
      "name": "screen",
      "rotation": [
        0.0,
        0.7071067690849304,
        0.0,
        0.7071067690849304
      ],
      "scale": [
        1.1729700565338135,
        1.7886099815368652,
        1.0
      ],
      "translation": [
        0.7315400242805481,
        0.002050000010058284,
        -0.656470000743866
      ]
    },
    {
      "mesh": 2,
      "name": "screen_0"
    },
    {
      "children": [
        9
      ],
      "name": "screen.001",
      "rotation": [
        0.0,
        0.7071067690849304,
        0.0,
        0.7071067690849304
      ],
      "scale": [
        1.1729700565338135,
        1.7886099815368652,
        1.0
      ],
      "translation": [
        0.7150400280952454,
        0.002050000010058284,
        -0.656470000743866
      ]
    },
    {
      "mesh": 3,
      "name": "screen.001_0"
    }
  ],
  "samplers": [
    {
      "magFilter": 9729,
      "minFilter": 9987,
      "wrapS": 10497,
      "wrapT": 10497
    }
  ],
  "scene": 0,
  "scenes": [
    {
      "name": "Sketchfab_Scene",
      "nodes": [
        0
      ]
    }
  ],
  "textures": [
    {
      "sampler": 0,
      "source": 0
    },
    {
      "sampler": 0,
      "source": 1
    },
    {
      "sampler": 0,
      "source": 2
    },
    {
      "sampler": 0,
      "source": 3
    },
    {
      "sampler": 0,
      "source": 4
    },
    {
      "sampler": 0,
      "source": 5
    },
    {
      "sampler": 0,
      "source": 6
    }
  ]
}
